<mxfile host="Electron" modified="2023-12-08T14:21:38.890Z" agent="Mozilla/5.0 (Windows NT 10.0; Win64; x64) AppleWebKit/537.36 (KHTML, like Gecko) draw.io/22.1.2 Chrome/114.0.5735.289 Electron/25.9.4 Safari/537.36" etag="P7Z6v7WhR44Mg2DGWthk" version="22.1.2" type="device">
  <diagram name="Page-1" id="2YBvvXClWsGukQMizWep">
    <mxGraphModel dx="1036" dy="606" grid="1" gridSize="10" guides="1" tooltips="1" connect="1" arrows="1" fold="1" page="1" pageScale="1" pageWidth="1654" pageHeight="2336" math="0" shadow="0">
      <root>
        <mxCell id="0" />
        <mxCell id="1" parent="0" />
        <mxCell id="dkU-PEhgUuoq_WJpzVdR-2" value="Actor" style="shape=umlActor;verticalLabelPosition=bottom;verticalAlign=top;html=1;outlineConnect=0;" vertex="1" parent="1">
          <mxGeometry x="210" y="200" width="50" height="80" as="geometry" />
        </mxCell>
        <mxCell id="dkU-PEhgUuoq_WJpzVdR-7" value="doctor" style="text;html=1;align=center;verticalAlign=middle;resizable=0;points=[];autosize=1;strokeColor=none;fillColor=none;" vertex="1" parent="1">
          <mxGeometry x="205" y="290" width="60" height="30" as="geometry" />
        </mxCell>
        <mxCell id="dkU-PEhgUuoq_WJpzVdR-9" value="Authentication" style="rounded=0;whiteSpace=wrap;html=1;" vertex="1" parent="1">
          <mxGeometry x="30" y="240" width="90" height="50" as="geometry" />
        </mxCell>
        <mxCell id="dkU-PEhgUuoq_WJpzVdR-10" value="" style="endArrow=none;dashed=1;html=1;rounded=0;" edge="1" parent="1" source="dkU-PEhgUuoq_WJpzVdR-58">
          <mxGeometry width="50" height="50" relative="1" as="geometry">
            <mxPoint x="240" y="830" as="sourcePoint" />
            <mxPoint x="240" y="330" as="targetPoint" />
          </mxGeometry>
        </mxCell>
        <mxCell id="dkU-PEhgUuoq_WJpzVdR-11" value="" style="endArrow=none;dashed=1;html=1;rounded=0;entryX=0.5;entryY=1;entryDx=0;entryDy=0;" edge="1" parent="1" target="dkU-PEhgUuoq_WJpzVdR-9">
          <mxGeometry width="50" height="50" relative="1" as="geometry">
            <mxPoint x="75" y="840" as="sourcePoint" />
            <mxPoint x="90" y="410" as="targetPoint" />
          </mxGeometry>
        </mxCell>
        <mxCell id="dkU-PEhgUuoq_WJpzVdR-12" value="" style="endArrow=classic;html=1;rounded=0;" edge="1" parent="1">
          <mxGeometry width="50" height="50" relative="1" as="geometry">
            <mxPoint x="75" y="350" as="sourcePoint" />
            <mxPoint x="240" y="350" as="targetPoint" />
          </mxGeometry>
        </mxCell>
        <mxCell id="dkU-PEhgUuoq_WJpzVdR-16" value="&lt;span style=&quot;color: rgb(0, 0, 0); font-family: Helvetica; font-size: 12px; font-style: normal; font-variant-ligatures: normal; font-variant-caps: normal; font-weight: 400; letter-spacing: normal; orphans: 2; text-align: center; text-indent: 0px; text-transform: none; widows: 2; word-spacing: 0px; -webkit-text-stroke-width: 0px; background-color: rgb(251, 251, 251); text-decoration-thickness: initial; text-decoration-style: initial; text-decoration-color: initial; float: none; display: inline !important;&quot;&gt;Authenticate()&lt;/span&gt;" style="text;whiteSpace=wrap;html=1;" vertex="1" parent="1">
          <mxGeometry x="120" y="320" width="110" height="40" as="geometry" />
        </mxCell>
        <mxCell id="dkU-PEhgUuoq_WJpzVdR-17" value="patienRecord" style="rounded=0;whiteSpace=wrap;html=1;" vertex="1" parent="1">
          <mxGeometry x="350" y="240" width="90" height="50" as="geometry" />
        </mxCell>
        <mxCell id="dkU-PEhgUuoq_WJpzVdR-18" value="" style="endArrow=none;dashed=1;html=1;rounded=0;entryX=0.5;entryY=1;entryDx=0;entryDy=0;" edge="1" parent="1" target="dkU-PEhgUuoq_WJpzVdR-17">
          <mxGeometry width="50" height="50" relative="1" as="geometry">
            <mxPoint x="395" y="840" as="sourcePoint" />
            <mxPoint x="410" y="410" as="targetPoint" />
          </mxGeometry>
        </mxCell>
        <mxCell id="dkU-PEhgUuoq_WJpzVdR-19" value="" style="endArrow=classic;html=1;rounded=0;" edge="1" parent="1">
          <mxGeometry width="50" height="50" relative="1" as="geometry">
            <mxPoint x="240" y="370" as="sourcePoint" />
            <mxPoint x="390" y="370" as="targetPoint" />
          </mxGeometry>
        </mxCell>
        <mxCell id="dkU-PEhgUuoq_WJpzVdR-24" value="Complete Activities&amp;nbsp; and Save Records" style="rounded=0;whiteSpace=wrap;html=1;" vertex="1" parent="1">
          <mxGeometry x="1090" y="240" width="90" height="50" as="geometry" />
        </mxCell>
        <mxCell id="dkU-PEhgUuoq_WJpzVdR-25" value="" style="endArrow=none;dashed=1;html=1;rounded=0;entryX=0.5;entryY=1;entryDx=0;entryDy=0;" edge="1" parent="1" target="dkU-PEhgUuoq_WJpzVdR-24">
          <mxGeometry width="50" height="50" relative="1" as="geometry">
            <mxPoint x="1140" y="830" as="sourcePoint" />
            <mxPoint x="1220" y="410" as="targetPoint" />
          </mxGeometry>
        </mxCell>
        <mxCell id="dkU-PEhgUuoq_WJpzVdR-26" value="" style="endArrow=classic;html=1;rounded=0;" edge="1" parent="1">
          <mxGeometry width="50" height="50" relative="1" as="geometry">
            <mxPoint x="240" y="530" as="sourcePoint" />
            <mxPoint x="770" y="530" as="targetPoint" />
          </mxGeometry>
        </mxCell>
        <mxCell id="dkU-PEhgUuoq_WJpzVdR-27" value="&amp;nbsp;createAppointment()&lt;br style=&quot;border-color: var(--border-color); text-align: left;&quot;&gt;" style="text;html=1;align=center;verticalAlign=middle;resizable=0;points=[];autosize=1;strokeColor=none;fillColor=none;" vertex="1" parent="1">
          <mxGeometry x="400" y="500" width="140" height="30" as="geometry" />
        </mxCell>
        <mxCell id="dkU-PEhgUuoq_WJpzVdR-28" value="" style="endArrow=classic;html=1;rounded=0;" edge="1" parent="1">
          <mxGeometry width="50" height="50" relative="1" as="geometry">
            <mxPoint x="245" y="400" as="sourcePoint" />
            <mxPoint x="530" y="400" as="targetPoint" />
          </mxGeometry>
        </mxCell>
        <mxCell id="dkU-PEhgUuoq_WJpzVdR-30" value="&lt;span style=&quot;border-color: var(--border-color); color: rgb(0, 0, 0); font-family: Helvetica; font-size: 12px; font-style: normal; font-variant-ligatures: normal; font-variant-caps: normal; font-weight: 400; letter-spacing: normal; orphans: 2; text-indent: 0px; text-transform: none; widows: 2; word-spacing: 0px; -webkit-text-stroke-width: 0px; background-color: rgb(251, 251, 251); text-decoration-thickness: initial; text-decoration-style: initial; text-decoration-color: initial; text-align: left;&quot;&gt;diagnosis()&lt;/span&gt;" style="text;whiteSpace=wrap;html=1;" vertex="1" parent="1">
          <mxGeometry x="290" y="410" width="110" height="40" as="geometry" />
        </mxCell>
        <mxCell id="dkU-PEhgUuoq_WJpzVdR-32" value="communicate with patient" style="rounded=0;whiteSpace=wrap;html=1;" vertex="1" parent="1">
          <mxGeometry x="490" y="240" width="90" height="50" as="geometry" />
        </mxCell>
        <mxCell id="dkU-PEhgUuoq_WJpzVdR-33" value="" style="endArrow=none;dashed=1;html=1;rounded=0;entryX=0.5;entryY=1;entryDx=0;entryDy=0;" edge="1" parent="1" target="dkU-PEhgUuoq_WJpzVdR-32">
          <mxGeometry width="50" height="50" relative="1" as="geometry">
            <mxPoint x="535" y="840" as="sourcePoint" />
            <mxPoint x="440" y="355" as="targetPoint" />
          </mxGeometry>
        </mxCell>
        <mxCell id="dkU-PEhgUuoq_WJpzVdR-35" value="communicate()" style="text;html=1;align=center;verticalAlign=middle;resizable=0;points=[];autosize=1;strokeColor=none;fillColor=none;" vertex="1" parent="1">
          <mxGeometry x="280" y="370" width="100" height="30" as="geometry" />
        </mxCell>
        <mxCell id="dkU-PEhgUuoq_WJpzVdR-36" value="" style="endArrow=classic;html=1;rounded=0;entryX=0;entryY=0;entryDx=0;entryDy=5;entryPerimeter=0;" edge="1" parent="1">
          <mxGeometry width="50" height="50" relative="1" as="geometry">
            <mxPoint x="245" y="432.5" as="sourcePoint" />
            <mxPoint x="640" y="427.5" as="targetPoint" />
          </mxGeometry>
        </mxCell>
        <mxCell id="dkU-PEhgUuoq_WJpzVdR-39" value="Schedule Surgeries" style="rounded=0;whiteSpace=wrap;html=1;" vertex="1" parent="1">
          <mxGeometry x="860" y="240" width="90" height="50" as="geometry" />
        </mxCell>
        <mxCell id="dkU-PEhgUuoq_WJpzVdR-40" value="" style="endArrow=none;dashed=1;html=1;rounded=0;entryX=0.5;entryY=1;entryDx=0;entryDy=0;" edge="1" parent="1" target="dkU-PEhgUuoq_WJpzVdR-39" source="dkU-PEhgUuoq_WJpzVdR-67">
          <mxGeometry width="50" height="50" relative="1" as="geometry">
            <mxPoint x="910" y="840" as="sourcePoint" />
            <mxPoint x="1050" y="410" as="targetPoint" />
          </mxGeometry>
        </mxCell>
        <mxCell id="dkU-PEhgUuoq_WJpzVdR-46" value="Diagnosis" style="rounded=0;whiteSpace=wrap;html=1;" vertex="1" parent="1">
          <mxGeometry x="600" y="240" width="90" height="50" as="geometry" />
        </mxCell>
        <mxCell id="dkU-PEhgUuoq_WJpzVdR-47" value="" style="endArrow=none;dashed=1;html=1;rounded=0;entryX=0.5;entryY=1;entryDx=0;entryDy=0;" edge="1" parent="1" target="dkU-PEhgUuoq_WJpzVdR-46">
          <mxGeometry width="50" height="50" relative="1" as="geometry">
            <mxPoint x="645" y="840" as="sourcePoint" />
            <mxPoint x="1065" y="410" as="targetPoint" />
          </mxGeometry>
        </mxCell>
        <mxCell id="dkU-PEhgUuoq_WJpzVdR-21" value="&lt;p style=&quot;border-color: var(--border-color); text-align: left; margin: 0px 0px 0px 4px;&quot;&gt;viewPatientInfo()&lt;/p&gt;&lt;p style=&quot;border-color: var(--border-color); text-align: left; margin: 0px 0px 0px 4px;&quot;&gt;&lt;br&gt;&lt;/p&gt;" style="text;html=1;align=center;verticalAlign=middle;resizable=0;points=[];autosize=1;strokeColor=none;fillColor=none;" vertex="1" parent="1">
          <mxGeometry x="260" y="340" width="120" height="40" as="geometry" />
        </mxCell>
        <mxCell id="dkU-PEhgUuoq_WJpzVdR-54" value="Appointment Treatments" style="rounded=0;whiteSpace=wrap;html=1;" vertex="1" parent="1">
          <mxGeometry x="730" y="240" width="90" height="50" as="geometry" />
        </mxCell>
        <mxCell id="dkU-PEhgUuoq_WJpzVdR-55" value="" style="endArrow=none;dashed=1;html=1;rounded=0;entryX=0.5;entryY=1;entryDx=0;entryDy=0;" edge="1" parent="1" target="dkU-PEhgUuoq_WJpzVdR-54">
          <mxGeometry width="50" height="50" relative="1" as="geometry">
            <mxPoint x="780" y="840" as="sourcePoint" />
            <mxPoint x="760" y="410" as="targetPoint" />
          </mxGeometry>
        </mxCell>
        <mxCell id="dkU-PEhgUuoq_WJpzVdR-57" value="" style="endArrow=none;dashed=1;html=1;rounded=0;" edge="1" parent="1" target="dkU-PEhgUuoq_WJpzVdR-58">
          <mxGeometry width="50" height="50" relative="1" as="geometry">
            <mxPoint x="240" y="830" as="sourcePoint" />
            <mxPoint x="240" y="330" as="targetPoint" />
          </mxGeometry>
        </mxCell>
        <mxCell id="dkU-PEhgUuoq_WJpzVdR-58" value="" style="html=1;points=[[0,0,0,0,5],[0,1,0,0,-5],[1,0,0,0,5],[1,1,0,0,-5]];perimeter=orthogonalPerimeter;outlineConnect=0;targetShapes=umlLifeline;portConstraint=eastwest;newEdgeStyle={&quot;curved&quot;:0,&quot;rounded&quot;:0};" vertex="1" parent="1">
          <mxGeometry x="235" y="360" width="10" height="80" as="geometry" />
        </mxCell>
        <mxCell id="dkU-PEhgUuoq_WJpzVdR-63" style="edgeStyle=orthogonalEdgeStyle;rounded=0;orthogonalLoop=1;jettySize=auto;html=1;curved=0;" edge="1" parent="1" source="dkU-PEhgUuoq_WJpzVdR-59">
          <mxGeometry relative="1" as="geometry">
            <mxPoint x="900" y="460" as="targetPoint" />
            <Array as="points">
              <mxPoint x="775" y="460" />
              <mxPoint x="775" y="461" />
            </Array>
          </mxGeometry>
        </mxCell>
        <mxCell id="dkU-PEhgUuoq_WJpzVdR-59" value="" style="html=1;points=[[0,0,0,0,5],[0,1,0,0,-5],[1,0,0,0,5],[1,1,0,0,-5]];perimeter=orthogonalPerimeter;outlineConnect=0;targetShapes=umlLifeline;portConstraint=eastwest;newEdgeStyle={&quot;curved&quot;:0,&quot;rounded&quot;:0};" vertex="1" parent="1">
          <mxGeometry x="640" y="390" width="10" height="110" as="geometry" />
        </mxCell>
        <mxCell id="dkU-PEhgUuoq_WJpzVdR-61" value="updatePatientInfo()" style="html=1;verticalAlign=bottom;endArrow=open;dashed=1;endSize=8;curved=0;rounded=0;exitX=0;exitY=1;exitDx=0;exitDy=-5;entryX=0.002;entryY=-0.047;entryDx=0;entryDy=0;entryPerimeter=0;" edge="1" source="dkU-PEhgUuoq_WJpzVdR-59" parent="1">
          <mxGeometry x="-0.0031" relative="1" as="geometry">
            <mxPoint x="395.24" y="496.5899999999999" as="targetPoint" />
            <mxPoint as="offset" />
          </mxGeometry>
        </mxCell>
        <mxCell id="dkU-PEhgUuoq_WJpzVdR-64" value="judgeIfSurgery(true)" style="text;html=1;align=center;verticalAlign=middle;resizable=0;points=[];autosize=1;strokeColor=none;fillColor=none;" vertex="1" parent="1">
          <mxGeometry x="650" y="430" width="130" height="30" as="geometry" />
        </mxCell>
        <mxCell id="dkU-PEhgUuoq_WJpzVdR-69" value="arrangeSchedule()" style="html=1;verticalAlign=bottom;endArrow=open;dashed=1;endSize=8;curved=0;rounded=0;exitX=0;exitY=1;exitDx=0;exitDy=-5;" edge="1" source="dkU-PEhgUuoq_WJpzVdR-67" parent="1">
          <mxGeometry y="-5" relative="1" as="geometry">
            <mxPoint x="780" y="545" as="targetPoint" />
            <mxPoint as="offset" />
          </mxGeometry>
        </mxCell>
        <mxCell id="dkU-PEhgUuoq_WJpzVdR-70" value="" style="endArrow=none;dashed=1;html=1;rounded=0;entryX=0.5;entryY=1;entryDx=0;entryDy=0;" edge="1" parent="1" target="dkU-PEhgUuoq_WJpzVdR-67">
          <mxGeometry width="50" height="50" relative="1" as="geometry">
            <mxPoint x="910" y="840" as="sourcePoint" />
            <mxPoint x="905" y="290" as="targetPoint" />
          </mxGeometry>
        </mxCell>
        <mxCell id="dkU-PEhgUuoq_WJpzVdR-67" value="" style="html=1;points=[[0,0,0,0,5],[0,1,0,0,-5],[1,0,0,0,5],[1,1,0,0,-5]];perimeter=orthogonalPerimeter;outlineConnect=0;targetShapes=umlLifeline;portConstraint=eastwest;newEdgeStyle={&quot;curved&quot;:0,&quot;rounded&quot;:0};" vertex="1" parent="1">
          <mxGeometry x="900" y="430" width="10" height="120" as="geometry" />
        </mxCell>
        <mxCell id="dkU-PEhgUuoq_WJpzVdR-71" value="" style="html=1;points=[[0,0,0,0,5],[0,1,0,0,-5],[1,0,0,0,5],[1,1,0,0,-5]];perimeter=orthogonalPerimeter;outlineConnect=0;targetShapes=umlLifeline;portConstraint=eastwest;newEdgeStyle={&quot;curved&quot;:0,&quot;rounded&quot;:0};" vertex="1" parent="1">
          <mxGeometry x="1130" y="470" width="10" height="220" as="geometry" />
        </mxCell>
        <mxCell id="dkU-PEhgUuoq_WJpzVdR-73" value="saveInPatientRecord()" style="html=1;verticalAlign=bottom;endArrow=open;dashed=1;endSize=8;curved=0;rounded=0;exitX=0;exitY=1;exitDx=0;exitDy=-5;" edge="1" source="dkU-PEhgUuoq_WJpzVdR-71" parent="1">
          <mxGeometry relative="1" as="geometry">
            <mxPoint x="400" y="685" as="targetPoint" />
          </mxGeometry>
        </mxCell>
        <mxCell id="dkU-PEhgUuoq_WJpzVdR-75" value="Medication" style="rounded=0;whiteSpace=wrap;html=1;" vertex="1" parent="1">
          <mxGeometry x="980" y="240" width="90" height="50" as="geometry" />
        </mxCell>
        <mxCell id="dkU-PEhgUuoq_WJpzVdR-76" value="" style="endArrow=none;dashed=1;html=1;rounded=0;entryX=0.5;entryY=1;entryDx=0;entryDy=0;" edge="1" parent="1" target="dkU-PEhgUuoq_WJpzVdR-75" source="dkU-PEhgUuoq_WJpzVdR-81">
          <mxGeometry width="50" height="50" relative="1" as="geometry">
            <mxPoint x="1030" y="840" as="sourcePoint" />
            <mxPoint x="1010" y="410" as="targetPoint" />
          </mxGeometry>
        </mxCell>
        <mxCell id="dkU-PEhgUuoq_WJpzVdR-78" value="" style="endArrow=classic;html=1;rounded=0;" edge="1" parent="1">
          <mxGeometry width="50" height="50" relative="1" as="geometry">
            <mxPoint x="650" y="420" as="sourcePoint" />
            <mxPoint x="1020" y="420" as="targetPoint" />
          </mxGeometry>
        </mxCell>
        <mxCell id="dkU-PEhgUuoq_WJpzVdR-79" value="judgeIfSurgery(false)" style="text;html=1;align=center;verticalAlign=middle;resizable=0;points=[];autosize=1;strokeColor=none;fillColor=none;" vertex="1" parent="1">
          <mxGeometry x="760" y="390" width="130" height="30" as="geometry" />
        </mxCell>
        <mxCell id="dkU-PEhgUuoq_WJpzVdR-80" value="" style="endArrow=none;dashed=1;html=1;rounded=0;entryX=0.5;entryY=1;entryDx=0;entryDy=0;" edge="1" parent="1" target="dkU-PEhgUuoq_WJpzVdR-81">
          <mxGeometry width="50" height="50" relative="1" as="geometry">
            <mxPoint x="1020" y="840" as="sourcePoint" />
            <mxPoint x="1025" y="290" as="targetPoint" />
          </mxGeometry>
        </mxCell>
        <mxCell id="dkU-PEhgUuoq_WJpzVdR-81" value="" style="html=1;points=[[0,0,0,0,5],[0,1,0,0,-5],[1,0,0,0,5],[1,1,0,0,-5]];perimeter=orthogonalPerimeter;outlineConnect=0;targetShapes=umlLifeline;portConstraint=eastwest;newEdgeStyle={&quot;curved&quot;:0,&quot;rounded&quot;:0};" vertex="1" parent="1">
          <mxGeometry x="1015" y="380" width="10" height="270" as="geometry" />
        </mxCell>
        <mxCell id="dkU-PEhgUuoq_WJpzVdR-85" value="" style="endArrow=classic;html=1;rounded=0;" edge="1" parent="1">
          <mxGeometry width="50" height="50" relative="1" as="geometry">
            <mxPoint x="240" y="620" as="sourcePoint" />
            <mxPoint x="1010" y="620" as="targetPoint" />
          </mxGeometry>
        </mxCell>
        <mxCell id="dkU-PEhgUuoq_WJpzVdR-86" value="prescribe()" style="text;html=1;align=center;verticalAlign=middle;resizable=0;points=[];autosize=1;strokeColor=none;fillColor=none;" vertex="1" parent="1">
          <mxGeometry x="540" y="598" width="80" height="30" as="geometry" />
        </mxCell>
        <mxCell id="dkU-PEhgUuoq_WJpzVdR-88" value="" style="endArrow=classic;html=1;rounded=0;entryX=0;entryY=0.136;entryDx=0;entryDy=0;entryPerimeter=0;" edge="1" parent="1" target="dkU-PEhgUuoq_WJpzVdR-71">
          <mxGeometry width="50" height="50" relative="1" as="geometry">
            <mxPoint x="650" y="500" as="sourcePoint" />
            <mxPoint x="700" y="450" as="targetPoint" />
          </mxGeometry>
        </mxCell>
        <mxCell id="dkU-PEhgUuoq_WJpzVdR-89" value="saveDiagnosis()" style="text;html=1;align=center;verticalAlign=middle;resizable=0;points=[];autosize=1;strokeColor=none;fillColor=none;" vertex="1" parent="1">
          <mxGeometry x="765" y="478" width="110" height="30" as="geometry" />
        </mxCell>
      </root>
    </mxGraphModel>
  </diagram>
</mxfile>
